<svg xmlns="http://www.w3.org/2000/svg" viewBox="0 0 1600 360">
<defs><linearGradient id="b" x1="0" x2="1"><stop offset="0" stop-color="#e8d27c"/><stop offset="1" stop-color="#efbd2a"/></linearGradient></defs>
<rect width="1600" height="360" fill="url(#b)"/>
<g opacity=".20" fill="#fff"><rect x="40" y="0" width="260" height="360"/><rect x="500" y="0" width="180" height="360"/><rect x="980" y="0" width="180" height="360"/><rect x="1320" y="0" width="220" height="360"/></g>
<g transform="translate(65 50)">
  <path d="M0 130c70-90 180-140 300-120 65 10 120 35 175 75 62 44 110 66 190 72 95 8 188-10 310-60 126-53 218-59 330-23 49 15 106 44 180 91v95H0z" fill="#b9d89a"/>
  <path d="M0 163c110-81 233-110 380-85 92 16 143 45 216 78 74 34 155 45 230 36 86-10 130-35 210-75 94-47 181-59 287-38 57 11 112 31 182 84v90H0z" fill="#9cc28e"/>
  <path d="M175 120l55-95 60 95-25 10-16-27h-42l-16 27z" fill="#fff7e7"/><circle cx="235" cy="70" r="10" fill="#7bd0f0"/><path d="M20 105l95-53 25 37-63 60z" fill="#9d7ed9"/><path d="M112 49l34 15-20 30-34-15z" fill="#f06e20"/>
  <g transform="translate(910 65)">
    <rect width="470" height="138" rx="28" fill="#fff5dc" opacity=".92"/>
    <text x="44" y="78" font-family="Arial, Helvetica, sans-serif" font-size="66" font-weight="900" fill="#171717">LEGO INSTRUCTIONS</text>
    <text x="44" y="130" font-family="Arial, Helvetica, sans-serif" font-size="66" font-weight="900" fill="#171717">FOR YOU</text>
  </g>
  <g transform="translate(1340 130)">
    <path d="M25 20l58 18-20 34-54-16z" fill="#a4d0e6"/><path d="M82 40l44 10-28 24-42-14z" fill="#74bc86"/><path d="M54 57l56 18-16 38-62-22z" fill="#9f704a"/>
  </g>
</g>
</svg>
