<svg xmlns="http://www.w3.org/2000/svg" viewBox="0 0 1600 420">
<defs><linearGradient id="bg" x1="0" x2="1"><stop offset="0" stop-color="#e8c156"/><stop offset="1" stop-color="#f0b61a"/></linearGradient><linearGradient id="panel" x1="0" x2="1"><stop offset="0" stop-color="#fff5d9"/><stop offset="1" stop-color="#fff0c1"/></linearGradient></defs>
<rect width="1600" height="420" fill="url(#bg)"/>
<g opacity=".18"><rect x="0" y="0" width="250" height="420" fill="#fff"/><rect x="320" y="0" width="180" height="420" fill="#fff"/><rect x="720" y="0" width="210" height="420" fill="#fff"/><rect x="1210" y="0" width="260" height="420" fill="#fff"/></g>
<g opacity=".14" fill="#c78800"><circle cx="1420" cy="110" r="90"/><circle cx="1460" cy="320" r="55"/><rect x="1280" y="100" width="220" height="180" rx="28"/></g>
<g transform="translate(95 70)"><circle cx="110" cy="110" r="94" fill="#fff4d3" opacity=".9"/><circle cx="110" cy="80" r="30" fill="#f1c34e"/><path d="M57 160c0-28 24-50 53-50s53 22 53 50v24H57z" fill="#f6efe0"/><rect x="55" y="70" width="110" height="72" rx="16" fill="#202020"/><rect x="66" y="81" width="88" height="50" rx="12" fill="#fff9ec"/><circle cx="86" cy="94" r="6" fill="#f4a120"/><circle cx="110" cy="94" r="6" fill="#f4a120"/><circle cx="134" cy="94" r="6" fill="#f4a120"/><path d="M76 114h68" stroke="#f4a120" stroke-width="7" stroke-linecap="round"/></g>
<g transform="translate(520 82)"><rect width="620" height="170" rx="34" fill="url(#panel)" opacity=".94"/><text x="44" y="80" font-family="Arial, Helvetica, sans-serif" font-size="74" font-weight="900" fill="#151515">LEGO INSTRUCTIONS</text><text x="44" y="150" font-family="Arial, Helvetica, sans-serif" font-size="74" font-weight="900" fill="#151515">FOR YOU</text></g>
</svg>